# xmcd CD database file
#
# Track frame offsets:
#	150
#	21156
#	48548
#	65974
#	82969
#	98004
#	115311
#	128935
#	154427
#	171002
#	185093
#	202744
#	218892
#	238399
#	260574
#
# Disc length: 3785 seconds
#
# Revision: 1
# Processed by: cddbd v1.5.2PL0 Copyright (c) Steve Scherf et al.
# Submitted via: CDex 1.51
#
DISCID=df0ec70f
DTITLE=Various Artist - SF-P&M-00
DYEAR=1900
DGENRE=Blues
TTITLE0=Noel Gallagher's High Flying Birds - What A Life (AKA)
TTITLE1=Wicked - Defying Gravity
TTITLE2=Kristin Chenoweth and Matthew Morrison - Alone (glee)
TTITLE3=Cher - You Haven't Seen The Last Of Me (burlesque)
TTITLE4=Matthew Morrison and Gwyneth Paltrow - Singing In The Rain (unbrella) (glee)
TTITLE5=Neil Diamond - Love On The Rocks
TTITLE6=Cher - Welcome To Burlesque (burlesque)
TTITLE7=Hairspray - You Can't Stop The Beat
TTITLE8=Sham 69 - Hersham Boys
TTITLE9=Etta James - At Last
TTITLE10=Paul Simon - Late In The Evening
TTITLE11=Climax Blues Band - Couldn't Get It Right
TTITLE12=Paloma Faith - Black and Blue
TTITLE13=Bobby McFerrin - Don't Worry Be Happy
TTITLE14=USA For Africa - We Are The World
EXTD=
EXTT0=
EXTT1=
EXTT2=
EXTT3=
EXTT4=
EXTT5=
EXTT6=
EXTT7=
EXTT8=
EXTT9=
EXTT10=
EXTT11=
EXTT12=
EXTT13=
EXTT14=
PLAYORDER=
